#!OML:ASF F:\VICON\USERDATA\INSTALL\rory3\rory3.ASF
:FULLY-SPECIFIED
:DEGREES
211
root -3.5201 14.2413 27.5215 -106.265 3.96345 -191.023
lowerback 46.2173 -0.598368 11.1636
upperback 0.860183 5.78833 10.2177
thorax -21.263 1.08847 3.27731
lowerneck -25.3679 -5.32285 -6.39451
upperneck 1.82075 -5.11205 5.54923
head 4.76452 -1.95545 2.24142
rclavicle 1.60618e-013 1.12512e-013
rhumerus 69.1055 -5.79764 -52.6796
rradius 31.1747
rwrist 14.715
rhand -26.6001 -75.7052
rfingers 7.12502
rthumb -0.033868 -1334.32
lclavicle 1.60618e-013 1.12512e-013
lhumerus 76.7849 15.3587 14.6058
lradius 30.6052
lwrist -14.9636
lhand -45.0465 -73.8789
lfingers 7.12502
lthumb -17.8283 -44.6761
rfemur -108.614 0.427002 9.38427
rtibia 73.3968
rfoot -27.7348 -15.1259
rtoes -9.76685
lfemur 1.0976 4.69859 -30.3716
ltibia 19.151
lfoot -1.47715 -2.10316
ltoes -27.3634
212
root -3.5259 14.2289 27.3008 -104.966 4.91706 -190.713
lowerback 46.4983 -0.248889 10.8651
upperback 0.732056 6.20712 10.4453
thorax -21.6312 1.27481 3.475
lowerneck -25.3503 -5.07588 -6.14071
upperneck 1.89297 -4.8344 5.13133
head 4.74955 -1.85403 2.09873
rclavicle 7.4743e-014 -4.05521e-014
rhumerus 69.5568 -5.45889 -52.2514
rradius 31.9961
rwrist 14.9907
rhand -29.1912 -76.6128
rfingers 7.12502
rthumb -2.53636 -1333.42
lclavicle 7.4743e-014 -4.05521e-014
lhumerus 74.3261 17.9498 7.8436
lradius 32.0085
lwrist -10.3156
lhand -45.3832 -74.9703
lfingers 7.12502
lthumb -18.1524 -45.7974
rfemur -108.942 0.616757 8.37322
rtibia 73.0509
rfoot -27.3675 -15.325
rtoes -9.88556
lfemur 3.43477 5.85984 -30.5166
ltibia 19.6855
lfoot 0.460317 -1.99982
ltoes -27.7014
213
root -3.52866 14.2205 27.0839 -103.626 5.84508 -190.495
lowerback 47.3564 -0.107155 10.8431
upperback -0.369393 6.60939 10.3217
thorax -21.6414 1.40253 3.66244
lowerneck -24.818 -4.72526 -5.82914
upperneck 1.10463 -4.42987 4.87633
head 4.38897 -1.66837 2.02439
rclavicle 1.27222e-014 1.22054e-013
rhumerus 69.9036 -5.08802 -51.806
rradius 33.007
rwrist 16.3327
rhand -30.5845 -79.0748
rfingers 7.12502
rthumb -3.88192 -1330.98
lclavicle 1.27222e-014 1.22054e-013
lhumerus 72.3195 19.9479 3.26363
lradius 32.8613
lwrist -7.36988
lhand -46.4588 -76.1586
lfingers 7.12502
lthumb -19.1869 -47.085
rfemur -109.254 0.706272 7.2017
rtibia 72.5284
rfoot -27.1582 -15.4885
rtoes -11.9039
lfemur 5.40541 7.19892 -30.5118
ltibia 20.9473
lfoot 1.33147 -2.2435
ltoes -28.9198
214
root -3.52958 14.2183 26.8571 -102.291 6.50811 -190.158
lowerback 47.459 0.208727 10.719
upperback -0.43661 7.02086 10.5366
thorax -21.8412 1.57182 3.75837
lowerneck -24.778 -4.35415 -5.45491
upperneck 0.838151 -4.03053 4.79627
head 4.27002 -1.47214 1.98606
rclavicle -3.65764e-014 1.17681e-013
rhumerus 70.105 -4.85833 -51.8194
rradius 34.0964
rwrist 18.5603
rhand -29.4674 -82.9634
rfingers 7.12502
rthumb -2.80315 -1327.08
lclavicle -3.65764e-014 1.17681e-013
lhumerus 72.6967 21.0757 2.9705
lradius 32.5326
lwrist -7.0474
lhand -46.2404 -76.5138
lfingers 7.12502
lthumb -18.9769 -47.4195
rfemur -109.486 0.879247 6.3491
rtibia 71.8568
rfoot -26.7097 -15.7233
rtoes -15.5245
lfemur 7.28412 9.11048 -29.9332
ltibia 22.5455
lfoot 2.23432 -2.67356
ltoes -27.0141
215
root -3.52987 14.2328 26.6075 -100.706 7.13555 -189.834
lowerback 46.6698 0.729082 10.2808
upperback 0.406884 7.42208 11.1621
thorax -22.437 1.81146 3.95437
lowerneck -25.2953 -4.08971 -5.36374
upperneck 1.63919 -3.72799 4.70835
head 4.57789 -1.34015 1.96866
rclavicle 3.49861e-014 -8.34896e-015
rhumerus 70.3521 -4.4483 -52.0157
rradius 35.0882
rwrist 20.7676
rhand -29.0187 -85.3914
rfingers 7.12502
rthumb -2.36976 -1324.64
lclavicle 3.49861e-014 -8.34896e-015
lhumerus 72.992 22.2568 2.9593
lradius 31.8773
lwrist -7.01256
lhand -45.6477 -79.546
lfingers 7.12502
lthumb -18.4068 -50.3969
rfemur -109.689 0.97407 5.45445
rtibia 70.9453
rfoot -26.0187 -16.0707
rtoes -18.2234
lfemur 8.79274 9.92251 -29.6363
ltibia 24.429
lfoot 2.97028 -2.10427
ltoes -27.4017
216
root -3.52953 14.2507 26.3576 -98.9898 7.83476 -189.653
lowerback 46.4227 1.01557 10.1353
upperback 0.220019 7.79657 11.4367
thorax -22.7268 1.98751 4.14712
lowerneck -24.6507 -3.7839 -5.57616
upperneck 0.829159 -3.2746 4.92042
head 4.21831 -1.10291 2.12689
rclavicle 1.09729e-013 6.91771e-014
rhumerus 70.6989 -3.93853 -52.2885
rradius 36.162
rwrist 22.2195
rhand -29.5066 -86.5627
rfingers 7.12502
rthumb -2.84096 -1323.48
lclavicle 1.09729e-013 6.91771e-014
lhumerus 73.7924 23.4014 4.12099
lradius 31.0153
lwrist -6.88256
lhand -44.7527 -75.6723
lfingers 7.12502
lthumb -17.5456 -46.444
rfemur -109.869 0.89701 4.266
rtibia 69.8581
rfoot -25.5557 -16.1736
rtoes -19.4646
lfemur 10.0179 10.7088 -29.387
ltibia 26.6895
lfoot 3.12257 -1.55639
ltoes -26.7476
217
root -3.5273 14.2757 26.104 -97.1693 8.4117 -189.475
lowerback 45.9037 -0.223918 8.46307
upperback 0.583149 8.76175 11.7173
thorax -22.6516 3.66959 4.27361
lowerneck -24.617 -3.50309 -5.05415
upperneck 0.833646 -3.01786 4.36312
head 4.18192 -1.01569 1.89335
rclavicle 2.38542e-014 -4.05521e-014
rhumerus 70.8877 -3.659 -52.7523
rradius 37.5336
rwrist 23.1737
rhand -30.1576 -88.2096
rfingers 7.12502
rthumb -3.46964 -1321.84
lclavicle 2.38542e-014 -4.05521e-014
lhumerus 74.8351 24.6423 5.65781
lradius 29.7921
lwrist -7.03939
lhand -44.0653 -75.5112
lfingers 7.12502
lthumb -16.8841 -46.2251
rfemur -110.005 0.76385 3.15234
rtibia 68.5339
rfoot -25.3008 -16.1459
rtoes -19.9346
lfemur 11.0561 11.6163 -28.8605
ltibia 29.1476
lfoot 4.341 -1.10463
ltoes -25.3325
218
root -3.52323 14.3115 25.8452 -94.9967 9.13932 -189.356
lowerback 44.9983 0.132706 8.29849
upperback 0.502502 9.0426 11.9462
thorax -22.5618 3.82353 4.47609
lowerneck -21.5599 -3.24051 -6.23519
upperneck -3.92329 -2.31783 5.92085
head 2.29377 -0.52147 2.66598
rclavicle 1.01778e-013 1.43523e-013
rhumerus 71.1711 -3.41394 -53.3109
rradius 38.8069
rwrist 24.5078
rhand -33.4097 90.1824
rfingers 7.12502
rthumb -6.60969 -1319.94
lclavicle 1.01778e-013 1.43523e-013
lhumerus 76.0687 25.8969 7.67921
lradius 28.4496
lwrist -6.93559
lhand -43.4336 -75.8004
lfingers 7.12502
lthumb -16.2759 -46.4635
rfemur -110.314 0.409769 1.89133
rtibia 66.9351
rfoot -24.8586 -16.1401
rtoes -20.499
lfemur 11.4567 12.5173 -28.4786
ltibia 32.0161
lfoot 3.99172 -1.17768
ltoes -27.1074
219
root -3.5203 14.3563 25.5809 -92.9051 9.7405 -189.459
lowerback 44.1434 0.306794 8.40205
upperback 0.414174 9.27527 12.2314
thorax -22.4587 3.94102 4.64061
lowerneck -19.7303 -3.07472 -7.25344
upperneck -7.03031 -1.77248 6.86026
head 1.09238 -0.147598 3.17754
rclavicle 8.98507e-014 2.98177e-014
rhumerus 71.613 -3.23802 -54.2497
rradius 40.0451
rwrist 26.848
rhand -40.9283 90.1365
rfingers 7.12502
rthumb -13.8625 -1320.35
lclavicle 8.98507e-014 2.98177e-014
lhumerus 77.7565 27.0976 10.7698
lradius 27.1578
lwrist -6.89109
lhand -43.2661 -75.2083
lfingers 7.12502
lthumb -16.1146 -45.8583
rfemur -110.308 -0.153725 0.627842
rtibia 65.128
rfoot -24.1188 -16.3079
rtoes -21.3853
lfemur 11.8616 13.1544 -27.9133
ltibia 35.0288
lfoot 4.52623 -0.985812
ltoes -25.9598
220
root -3.51993 14.4071 25.3007 -90.834 9.75308 -189.648
lowerback 43.2652 0.252521 9.12796
upperback 0.3475 9.61674 12.6782
thorax -22.2508 4.06561 4.61839
lowerneck -19.4017 -2.99896 -7.99696
upperneck -8.10174 -1.44403 7.30341
head 0.715516 0.0770522 3.46261
rclavicle -1.28812e-013 -2.34566e-014
rhumerus 71.8715 -3.15261 -55.0093
rradius 41.8914
rwrist 29.7373
rhand -31.8076 97.4372
rfingers 7.12502
rthumb -5.06297 -1312.64
lclavicle -1.28812e-013 -2.34566e-014
lhumerus 79.4044 28.1854 14.0842
lradius 26.1679
lwrist -6.41019
lhand -43.2649 -70.3133
lfingers 7.12502
lthumb -16.1134 -40.9632
rfemur -109.994 -0.724985 -0.11575
rtibia 63.0495
rfoot -23.271 -16.7375
rtoes -22.2793
lfemur 12.2452 13.7037 -26.5782
ltibia 38.226
lfoot 4.62637 -0.902345
ltoes -24.8991
221
root -3.52024 14.4673 25.0146 -88.1851 9.94146 -189.914
lowerback 41.7631 1.97724 11.2656
upperback -0.279915 9.26469 13.0318
thorax -22.087 2.63847 4.5699
lowerneck -20.4911 -2.98531 -8.51334
upperneck -6.9927 -1.29936 7.45462
head 1.1953 0.158562 3.60206
rclavicle -4.92986e-014 3.93594e-014
rhumerus 71.7537 -3.101 -54.8922
rradius 44.6485
rwrist 31.15
rhand -29.8771 98.3393
rfingers 7.12502
rthumb -3.19875 -1311.7
lclavicle -4.92986e-014 3.93594e-014
lhumerus 80.8152 29.0872 17.0735
lradius 25.4212
lwrist -5.33334
lhand -43.2869 -61.6088
lfingers 7.12502
lthumb -16.1347 -32.2604
rfemur -110.031 -1.6513 -0.954246
rtibia 60.5881
rfoot -22.3447 -17.0621
rtoes -23.113
lfemur 11.8311 14.0847 -25.5373
ltibia 41.6298
lfoot 3.84184 -0.955881
ltoes -26.7964
